<svg version="1.1" viewBox="0.0 0.0 720.0 720.0" fill="none" stroke="none" stroke-linecap="square" stroke-miterlimit="10" xmlns:xlink="http://www.w3.org/1999/xlink" xmlns="http://www.w3.org/2000/svg"><clipPath id="p.0"><path d="m0 0l720.0 0l0 720.0l-720.0 0l0 -720.0z" clip-rule="nonzero"/></clipPath><g clip-path="url(#p.0)"><path fill="#000000" fill-opacity="0.0" d="m0 0l720.0 0l0 720.0l-720.0 0z" fill-rule="evenodd"/><path fill="#71d9f1" d="m0 360.01312l0 0c0 -198.82251 161.17749 -360.0 360.0 -360.0l0 0c95.477936 0 187.04535 37.928463 254.55847 105.44156c67.51306 67.51309 105.44153 159.0805 105.44153 254.55844l0 0c0 198.82251 -161.17749 360.0 -360.0 360.0l0 0c-198.82251 0 -360.0 -161.17749 -360.0 -360.0z" fill-rule="evenodd"/><path fill="#000000" fill-opacity="0.0" d="m190.3307 189.44882l449.6693 0l0 394.55118l-449.6693 0z" fill-rule="evenodd"/><path fill="#000000" d="m534.99835 304.96817q-8.578125 -0.75 -46.109344 -6.90625q-37.515625 -6.15625 -52.81253 -6.15625q-33.984375 0 -33.984375 16.796875q0 11.578125 16.984375 29.3125q17.0 17.71875 46.859406 36.390625q2.234375 1.125 1.125 2.609375q-0.75 1.125 -2.984375 0.75q-30.984406 -7.46875 -49.65628 -26.5q-18.671875 -19.046875 -18.671875 -38.828125q0 -5.234375 1.3125 -9.890625q1.3125 -4.671875 4.109375 -8.78125q2.796875 -4.109375 7.453125 -7.46875q4.671875 -3.359375 10.453125 -5.78125q5.796875 -2.421875 13.625 -3.734375q7.84375 -1.3125 17.18753 -1.3125q5.59375 0 11.375 0.375q5.796875 0.375 12.515625 1.5q6.71875 1.125 13.8125 2.609375q1.125 0.375 14.1875 3.359375q13.0624695 2.984375 22.765594 5.046875q9.71875 2.046875 23.34375 3.921875q13.625 1.859375 22.578125 1.859375q7.46875 0 12.5 -1.296875q5.046875 -1.3125 7.296875 -3.921875q0.359375 -0.75 0.921875 -1.125q0.5625 -0.375 1.125 -0.75q0.5625 -0.375 1.109375 -0.5625q0.5625 -0.1875 0.9375 -0.1875q0.75 0 1.3125 0.375q0.5625 0.375 0.9375 1.125q0.375 0.75 0.375 1.859375q0 5.234375 -7.84375 13.4375q-5.96875 5.984375 -20.90625 5.984375q-9.34375 0 -18.671875 -1.875q-1.125 3.359375 -4.84375 15.6875q-85.87497 294.18747 -170.98438 294.18747q-29.125 0 -54.890625 -36.59375q-14.5625 -20.53125 -14.5625 -52.640625q0 -6.71875 1.3125 -12.3125q1.3125 -5.6093445 3.546875 -5.6093445q2.609375 0 3.734375 9.7030945q0 0.375 0 0.75q0 2.984375 0.921875 8.015625q0.9375 5.046875 2.625 11.578125q1.6875 6.546875 4.859375 13.828125q3.171875 7.28125 6.90625 14.359375q3.734375 7.09375 9.140625 13.625q5.40625 6.546875 11.75 11.578125q6.359375 5.046875 14.375 8.03125q8.03125 2.984375 17.0 2.984375q1.484375 0 2.78125 -0.1875q1.3125 -0.1875 2.4375 -0.1875q13.0625 -1.109375 27.25 -15.296875q14.1875 -14.1875 27.625 -38.640625q13.4531555 -24.453125 25.390656 -50.578094q11.953125 -26.140625 23.890625 -59.171875q11.953125 -33.046875 19.59375 -55.625q7.6562195 -22.59375 15.8749695 -48.90625q8.21875 -26.328125 9.703125 -30.8125z" fill-rule="nonzero"/><path fill="#000000" fill-opacity="0.0" d="m40.0 32.0l449.66928 0l0 394.55118l-449.66928 0z" fill-rule="evenodd"/><path fill="#000000" d="m384.66766 147.51935q-8.578125 -0.75 -46.109375 -6.90625q-37.515625 -6.15625 -52.8125 -6.15625q-33.98439 0 -33.98439 16.796875q0 11.578125 16.98439 29.3125q17.0 17.71875 46.859375 36.390625q2.234375 1.125 1.125 2.609375q-0.75 1.125 -2.984375 0.75q-30.984375 -7.46875 -49.65625 -26.5q-18.67189 -19.046875 -18.67189 -38.828125q0 -5.234375 1.3125 -9.890625q1.3125 -4.671875 4.109375 -8.78125q2.796875 -4.109375 7.4531403 -7.46875q4.671875 -3.359375 10.453125 -5.78125q5.796875 -2.421875 13.625 -3.734375q7.84375 -1.3125 17.1875 -1.3125q5.59375 0 11.375 0.375q5.796875 0.375 12.515625 1.5q6.71875 1.125 13.8125 2.609375q1.125 0.375 14.1875 3.359375q13.0625 2.984375 22.765625 5.046875q9.71875 2.046875 23.34375 3.921875q13.625 1.859375 22.578125 1.859375q7.46875 0 12.5 -1.296875q5.046875 -1.3125 7.296875 -3.921875q0.359375 -0.75 0.921875 -1.125q0.5625 -0.375 1.125 -0.75q0.5625 -0.375 1.109375 -0.5625q0.5625 -0.1875 0.9375 -0.1875q0.75 0 1.3125 0.375q0.5625 0.375 0.9375 1.125q0.375 0.75 0.375 1.859375q0 5.234375 -7.84375 13.4375q-5.96875 5.984375 -20.90625 5.984375q-9.34375 0 -18.671875 -1.875q-1.125 3.359375 -4.84375 15.6875q-85.875 294.1875 -170.98439 294.1875q-29.125 0 -54.890625 -36.59375q-14.5625 -20.53125 -14.5625 -52.640625q0 -6.71875 1.3125 -12.3125q1.3125 -5.609375 3.546875 -5.609375q2.609375 0 3.734375 9.703125q0 0.375 0 0.75q0 2.984375 0.921875 8.015625q0.9375 5.046875 2.625 11.578125q1.6875 6.546875 4.859375 13.828125q3.171875 7.28125 6.90625 14.359375q3.734375 7.09375 9.140625 13.625q5.40625 6.546875 11.75 11.578125q6.359375 5.046875 14.375 8.03125q8.03125 2.984375 17.0 2.984375q1.484375 0 2.78125 -0.1875q1.3125 -0.1875 2.4375 -0.1875q13.0625 -1.109375 27.250015 -15.296875q14.1875 -14.1875 27.625 -38.640625q13.453125 -24.453125 25.390625 -50.578125q11.953125 -26.140625 23.890625 -59.171875q11.953125 -33.046875 19.59375 -55.625q7.65625 -22.59375 15.875 -48.90625q8.21875 -26.328125 9.703125 -30.8125z" fill-rule="nonzero"/></g></svg>